<svg xmlns="http://www.w3.org/2000/svg" viewBox="0 0 260 260"><path id="Dfill" display="none" fill="#444" d="M237.6,127.9c1,61.6-36.5,123.9-121.8,123.9c-29.9,0-65.8,0-95.7,0V8.2c29.9,0,65.8,0,95.7,0C199.3,8.2,236.5,67.7,237.6,127.9z"/><g id="DK" fill="#000"><path d="M114.1,51.7l35.7-39.8c-10.4-2.4-21.7-3.7-34.1-3.7c-14.3,0-30,0-45.8,0v43.5H114.1z"/><path d="M192,127.6c0.6,21.9-5.8,44-21,59.4l31.5,33c24.5-23.8,35.7-58,35.1-92C237,93,224.2,58.3,197.2,35.3l-30.8,33.2C183.5,83.1,191.4,105.3,192,127.6z"/><path d="M115.8,207.6H70v44.2c15.7,0,31.4,0,45.8,0c15.3,0,29.1-2,41.3-5.7l-36.5-38.6C119,207.6,117.4,207.6,115.8,207.6z"/><path d="M215.7,9.6L107.4,126.2L224.7,249v2.8H168L66,143.9v107.9H20.1V8.2H66v103l92.6-103h57.1V9.6z"/></g></svg>