<?xml version="1.0" standalone="no"?>
<!DOCTYPE svg PUBLIC "-//W3C//DTD SVG 20010904//EN"
 "http://www.w3.org/TR/2001/REC-SVG-20010904/DTD/svg10.dtd">
<svg version="1.0" xmlns="http://www.w3.org/2000/svg"
 width="260.000000pt" height="260.000000pt" viewBox="0 0 260.000000 260.000000"
 preserveAspectRatio="xMidYMid meet">
<metadata>
Created by potrace 1.11, written by Peter Selinger 2001-2013
</metadata>
<g transform="translate(0.000000,260.000000) scale(0.100000,-0.100000)"
fill="#000000" stroke="none">
<path d="M310 2512 l-125 -3 1 -1212 c1 -667 2 -1215 3 -1218 0 -3 100 -6 222
-7 217 0 220 0 227 21 4 12 7 255 6 541 l-1 518 79 -83 c186 -196 338 -357
538 -570 134 -142 230 -244 356 -375 l49 -52 280 2 c251 1 280 3 280 17 0 9
-77 97 -171 195 -95 99 -191 199 -214 224 -23 25 -113 119 -200 210 -87 91
-180 188 -207 216 -26 28 -120 126 -208 218 -88 93 -160 172 -160 176 0 7 76
92 202 226 21 22 90 96 153 164 63 69 126 136 140 151 14 15 63 69 110 119 47
51 99 107 115 124 17 18 80 86 140 151 61 65 134 144 162 174 29 31 53 61 53
66 0 6 -101 9 -287 8 -231 -2 -290 -5 -298 -16 -9 -12 -72 -83 -170 -191 -11
-13 -51 -58 -90 -101 -38 -43 -75 -83 -80 -89 -26 -27 -126 -138 -190 -211
-38 -43 -81 -90 -94 -104 -12 -14 -55 -62 -95 -106 -148 -165 -180 -200 -186
-203 -4 -1 -7 221 -8 495 0 274 -1 505 -1 513 -1 16 -59 18 -331 12z"/>
<path d="M679 2490 c0 -11 -1 -103 -1 -205 0 -102 1 -191 1 -198 1 -9 53 -12
227 -12 l226 0 46 51 c26 28 72 79 102 114 58 66 78 89 144 160 62 68 68 76
53 78 -6 0 -24 3 -38 6 -85 19 -186 24 -456 25 -298 2 -303 1 -304 -19z"/>
<path d="M1938 2232 c-7 -11 -66 -76 -131 -145 -65 -69 -127 -136 -138 -148
l-20 -23 41 -38 c196 -185 277 -551 189 -853 -26 -86 -87 -202 -141 -267 l-41
-49 55 -57 c30 -31 99 -103 153 -160 54 -56 104 -102 110 -102 12 0 62 55 132
149 104 137 195 383 218 589 7 61 7 265 0 317 -41 308 -151 550 -329 729 -78
78 -82 80 -98 58z"/>
<path d="M682 513 c-5 -2 -8 -383 -3 -436 1 -11 577 -7 661 4 100 14 221 41
218 50 -2 4 -64 72 -139 151 -75 79 -154 163 -176 187 l-41 45 -256 0 c-141 1
-259 0 -264 -1z"/>
</g>
</svg>
