<svg xmlns="http://www.w3.org/2000/svg" viewBox="0 0 775 260"><path id="Dfill" display="none" fill="#444" d="M237.6,127.9c1,61.6-36.5,123.9-121.8,123.9c-29.9,0-65.8,0-95.7,0V8.2c29.9,0,65.8,0,95.7,0C199.3,8.2,236.5,67.7,237.6,127.9z"/><g id="DK" fill="#fff"><path d="M114.1,51.7l35.7-39.8c-10.4-2.4-21.7-3.7-34.1-3.7c-14.3,0-30,0-45.8,0v43.5H114.1z"/><path d="M192,127.6c0.6,21.9-5.8,44-21,59.4l31.5,33c24.5-23.8,35.7-58,35.1-92C237,93,224.2,58.3,197.2,35.3l-30.8,33.2C183.5,83.1,191.4,105.3,192,127.6z"/><path d="M115.8,207.6H70v44.2c15.7,0,31.4,0,45.8,0c15.3,0,29.1-2,41.3-5.7l-36.5-38.6C119,207.6,117.4,207.6,115.8,207.6z"/><path d="M215.7,9.6L107.4,126.2L224.7,249v2.8H168L66,143.9v107.9H20.1V8.2H66v103l92.6-103h57.1V9.6z"/></g><g fill="#fff"><path d="M342.2,106.9l-31.1,33.5l33.7,35.3v0.8h-16.3l-29.3-31v31H286v-70h13.2v29.6l26.6-29.6h16.4V106.9z"/><path d="M357.4,156.2c0.8,6.1,6.1,10.5,14.7,10.5c4.5,0,10.4-1.7,13.2-4.6l7.8,7.7c-5.2,5.4-13.7,8-21.2,8c-17,0-27.1-10.5-27.1-26.3c0-15,10.2-25.8,26.2-25.8c16.5,0,26.8,10.2,24.9,30.5H357.4z M384.2,146.1c-0.8-6.4-5.8-9.6-12.8-9.6c-6.6,0-12,3.2-13.8,9.6H384.2z"/><path d="M415.5,156.2c0.8,6.1,6.1,10.5,14.7,10.5c4.5,0,10.4-1.7,13.2-4.6l7.8,7.7c-5.2,5.4-13.7,8-21.2,8c-17,0-27.1-10.5-27.1-26.3c0-15,10.2-25.8,26.2-25.8c16.5,0,26.8,10.2,24.9,30.5H415.5z M442.3,146.1c-0.8-6.4-5.8-9.6-12.8-9.6c-6.6,0-12,3.2-13.8,9.6H442.3z"/><path d="M514.5,106.6v69.9h-11.4l-0.8-6.8c-3.8,5.9-9.9,7.9-15.9,7.9c-14.5,0-25.4-9.6-25.4-25.8c0-17,10.7-25.8,25.1-25.8c5.2,0,13.3,2.8,16.2,7.9v-27.3H514.5z M473.2,151.8c0,8.6,6.2,14.5,14,14.5c7.7,0,14.3-5.6,14.3-14.5c0-8.6-6.6-14.4-14.3-14.4C479.4,137.4,473.2,142.9,473.2,151.8z"/><path d="M576.7,127.2l-31,71.9h-13.4l10.1-23.4l-19.7-48.5h14.2l7.5,21.3l4.7,13.9l5.1-13.6l9-21.6H576.7z"/><path d="M592.9,106.5v64.9h39.4v5.1h-44.8v-70H592.9z"/><path d="M681.9,145.2v31.3h-4.3l-0.1-10.2c-4.4,7.6-11.2,11.2-19.4,11.2c-9.9,0-20-4.6-20-15.9c0-11.1,9.9-15.9,19.8-15.8c7,0,13.1,1.7,19.1,4.6v-5.2c0-10.9-8.1-14.1-17.8-14.1c-5.2,0-11.8,1.7-16.5,4l-1.1-4.5c5.9-2.5,11.3-4.1,17.6-4.1C671.7,126.5,681.9,131.6,681.9,145.2z M657.9,150.4c-7.1,0-14.9,2.8-14.9,11.2c0.1,8.5,8.8,11.3,15.1,11.3c10.7,0,18.2-7.3,18.8-17.9C671.5,152.2,664.1,150.5,657.9,150.4z"/><path d="M702.4,106.5v31.4c4-8,12-11.6,20.5-11.6c13.8,0,24.8,9.2,24.8,25.5c0,16.4-10.9,25.5-24.7,25.5c-8.4,0-16.5-4.2-20.6-11.7v10.9h-4.8v-70H702.4z M702.5,151.7c0,12.3,8.6,20.8,20.2,20.8c11.1,0,20.2-7,20.2-20.7c0-13.9-9.1-20.8-20.2-20.8C711.3,131,702.5,139.4,702.5,151.7z"/></g></svg>